<?xml version="1.0" encoding="UTF-8"?>
<svg xmlns="http://www.w3.org/2000/svg" viewBox="0 0 760 420" font-family="Segoe UI, Calibri, Arial, sans-serif" font-size="11">
  <rect width="760" height="420" fill="#fafbfc"/>
  <text x="380" y="26" text-anchor="middle" font-size="14" font-weight="600">STRIDE-inspired lens (simplified, home/SMB IoT)</text>
  <text x="380" y="44" text-anchor="middle" fill="#64748b" font-size="10">Optional figure for Ch.6; renumber later figures if this becomes Figure 3.</text>

  <rect x="40" y="65" width="150" height="62" rx="6" fill="#fee2e2" stroke="#dc2626"/>
  <text x="115" y="92" text-anchor="middle" font-weight="700">Spoofing</text>
  <text x="115" y="110" text-anchor="middle" fill="#991b1b" font-size="10">rogue device / creds</text>
  <rect x="210" y="65" width="150" height="62" rx="6" fill="#ffedd5" stroke="#ea580c"/>
  <text x="285" y="92" text-anchor="middle" font-weight="700">Tampering</text>
  <text x="285" y="110" text-anchor="middle" fill="#9a3412" font-size="10">firmware, config</text>
  <rect x="380" y="65" width="150" height="62" rx="6" fill="#fef9c3" stroke="#ca8a04"/>
  <text x="455" y="92" text-anchor="middle" font-weight="700">Repudiation</text>
  <text x="455" y="110" text-anchor="middle" fill="#854d0e" font-size="10">no audit trail</text>
  <rect x="550" y="65" width="170" height="62" rx="6" fill="#dbeafe" stroke="#2563eb"/>
  <text x="635" y="92" text-anchor="middle" font-weight="700">Information disclosure</text>
  <text x="635" y="110" text-anchor="middle" fill="#1e40af" font-size="10">leaks, metadata</text>

  <rect x="125" y="180" width="150" height="62" rx="6" fill="#ede9fe" stroke="#7c3aed"/>
  <text x="200" y="207" text-anchor="middle" font-weight="700">DoS / jamming</text>
  <text x="200" y="225" text-anchor="middle" fill="#5b21b6" font-size="10">availability loss</text>
  <rect x="305" y="180" width="150" height="62" rx="6" fill="#ccfbf1" stroke="#0d9488"/>
  <text x="380" y="207" text-anchor="middle" font-weight="700">Elevation</text>
  <text x="380" y="225" text-anchor="middle" fill="#115e59" font-size="10">weak defaults</text>

  <text x="380" y="300" text-anchor="middle" fill="#475569" font-size="11">Focus: availability and anomaly awareness (Ch.6-7).</text>
</svg>
